# xmcd CD database file
#
# Track frame offsets:
#	200
#	20175
#	47107
#	93755
#	111280
#
# Disc length: 1603 seconds
#
# Revision: 1
# Processed by: cddbd v1.5.1PL0 Copyright (c) Steve Scherf et al.
# Submitted via: CDex 1.51
#
DISCID=3b064105
DTITLE=Gary Moore - Cold Day in Hell e.p.
DYEAR=1992
DGENRE=Blues
TTITLE0=Cold Day in Hell
TTITLE1=All Time Low
TTITLE2=Stormy Monday (live)
TTITLE3=Woke up This Morning
TTITLE4=Key to Love
EXTD=YEAR: 1992
EXTT0=
EXTT1=
EXTT2=
EXTT3=
EXTT4=
PLAYORDER=
